<?xml version="1.0" encoding="utf-8"?>
<svg xmlns="http://www.w3.org/2000/svg" viewBox="479.6975 248.4125 217.3176 149.9595" width="217.318px" height="149.959px">
  <g transform="matrix(0.9866129755973816, 0, 0, 0.9866129755973816, 324.2481384277343, -91.36398315429688)" style="">
    <path opacity="1.000000" stroke="none" d="M 230.55 372.059 C 235.715 372.047 240.601 372.261 245.478 372.106 C 249.514 371.979 252.04 369.474 252.281 365.941 C 252.551 361.978 250.426 359.299 246.154 358.399 C 243.278 357.793 240.906 356.537 240.1 353.193 C 239.383 350.221 240.204 347.635 242.409 345.79 C 245.299 343.371 248.609 344.609 251.44 345.59 C 264.946 350.272 269.274 367.558 260.015 379.22 C 259.031 380.46 257.772 381.44 256.542 382.726 C 251.686 385.593 246.597 385.991 241.33 385.96 C 220.627 385.835 199.922 385.895 179.218 385.923 C 177.702 385.925 176.126 385.973 174.682 386.406 C 171.81 387.269 170.212 389.538 170.198 392.771 C 170.183 395.959 171.639 398.326 174.51 399.267 C 175.845 399.705 177.314 399.804 178.724 399.806 C 200.753 399.835 222.783 399.788 244.813 399.834 C 256.174 399.857 264.161 407.621 265.016 419.29 C 265.934 431.806 255.437 442.715 244.251 440.467 C 242.651 440.146 240.875 437.715 240.196 435.826 C 239.201 433.055 240.173 430.258 242.746 428.734 C 244.051 427.961 245.604 427.642 247.076 427.255 C 250.271 426.416 252.393 423.727 252.331 420.462 C 252.262 416.837 250.142 414.355 246.652 413.841 C 245.947 413.737 245.231 413.661 244.52 413.662 C 226.877 413.669 209.233 413.688 191.309 413.778 C 186.558 413.784 182.087 413.758 177.618 413.646 C 161.231 413.237 152.766 397.628 160.385 381.574 C 165.478 374.259 172.221 371.982 180.258 372.107 C 196.925 372.365 213.598 372.147 230.55 372.059 Z" style="fill: rgb(255, 84, 246);"/>
    <path opacity="1.000000" stroke="none" d="M 261.973 393.494 C 262.857 387.738 264.8 385.964 269.991 385.911 C 272.536 385.885 275.084 385.991 277.625 385.877 C 281.342 385.709 283.861 383.02 284.023 379.235 C 284.164 375.922 281.977 373.079 278.575 372.377 C 276.015 371.848 273.682 371.188 272.261 368.39 C 269.82 363.585 273.128 357.719 277.605 358.557 C 280.252 359.052 282.837 359.609 285.672 360.622 C 288.276 362.188 290.78 364.127 292.545 366.548 C 298.62 374.88 298.071 385.003 291.464 392.907 C 290.717 393.802 289.019 396.382 287.662 397.033 C 280.476 401.236 275.474 400.075 268.363 399.72 C 264.93 399.548 262.692 397.558 261.973 393.494 Z" style="fill: rgb(255, 84, 246);"/>
  </g>
  <path style="paint-order: fill; fill-rule: nonzero; stroke: rgba(0, 0, 0, 0); fill: rgb(255, 84, 246);" d="M 637.582 291.628 L 652.357 291.645 L 652.436 332.455 L 688.891 312.1 L 696.809 324.807 L 660.458 345.062 L 697.015 365.369 L 689.494 378.206 L 652.41 357.857 L 652.431 398.288 L 637.458 398.372 L 637.634 357.589 L 600.632 377.919 L 592.986 365.525 L 629.739 345.111 L 593.091 324.674 L 600.587 311.954 L 637.821 332.578 L 637.582 291.628 Z" transform="matrix(1, 0, 0, 1, -7.105427357601002e-15, 0)"/>
</svg>